#Comment line ignore any data following # character 
#Hierarchical Translation and Rotation (.htr) file 
[Header]	
#Header keywords are followed by a single value 
FileType HTR		#Single word string
DataType HTRS		#Translation followed by rotation and scale data
FileVersion 1		#integer
NumSegments 84		#integer
NumFrames 2		#integer
DataFrameRate 30		#integer, data frame rate in this file
EulerRotationOrder ZYX
CalibrationUnits mm
RotationUnits Degrees
GlobalAxisofGravity Y
BoneLengthAxis Y
ScaleFactor 1.00
[SegmentNames&Hierarchy]
#CHILD	PARENT
MASTER GLOBAL
root MASTER
chest root
L_mid_tent01 root
R_mid_tent01 root
spine01 root
Bip01_Neck chest
L_humerus chest
R_humerus chest
weapon_bone chest
Bip01_Head Bip01_Neck
eye_left_bone Bip01_Head
eye_right_bone Bip01_Head
L_forearm L_humerus
L_front_hand L_forearm
L_weapon_bone L_forearm
L_front_hand01_01 L_front_hand
L_front_hand02_01 L_front_hand
L_front_hand03_01 L_front_hand
L_front_hand01_02 L_front_hand01_01
L_front_hand02_02 L_front_hand02_01
L_front_hand03_02 L_front_hand03_01
R_forearm R_humerus
R_front_hand R_forearm
R_weapon_bone R_forearm
R_front_hand01_01 R_front_hand
R_front_hand02_01 R_front_hand
R_front_hand03_01 R_front_hand
R_front_hand01_02 R_front_hand01_01
R_front_hand02_02 R_front_hand02_01
R_front_hand03_02 R_front_hand03_01
null_rope01_connect L_mid_tent01
Rope1_Seg01 null_rope01_connect
Rope1_Seg02 Rope1_Seg01
Rope1_Seg03 Rope1_Seg02
Rope1_Seg04 Rope1_Seg03
Rope1_Seg05 Rope1_Seg04
Rope1_Seg06 Rope1_Seg05
Rope1_Seg07 Rope1_Seg06
Rope1_Seg09 Rope1_Seg07
L_mid_hand01 Rope1_Seg09
L_mid_hand02 Rope1_Seg09
L_mid_hand03 Rope1_Seg09
null_rope02_connect R_mid_tent01
Rope2_Seg01 null_rope02_connect
Rope2_Seg02 Rope2_Seg01
Rope2_Seg03 Rope2_Seg02
Rope2_Seg04 Rope2_Seg03
Rope2_Seg05 Rope2_Seg04
Rope2_Seg06 Rope2_Seg05
Rope2_Seg07 Rope2_Seg06
Rope2_Seg09 Rope2_Seg07
R_mid_hand01 Rope2_Seg09
R_mid_hand02 Rope2_Seg09
R_mid_hand03 Rope2_Seg09
spine02 spine01
spine03 spine02
pelvis spine03
null_rope03_connect pelvis
null_rope04_connect pelvis
Rope3_Seg01 null_rope03_connect
Rope3_Seg02 Rope3_Seg01
Rope3_Seg03 Rope3_Seg02
Rope3_Seg04 Rope3_Seg03
Rope3_Seg05 Rope3_Seg04
Rope3_Seg06 Rope3_Seg05
Rope3_Seg07 Rope3_Seg06
Rope3_Seg08 Rope3_Seg07
Rope3_Seg09 Rope3_Seg08
R_rear_hand01 Rope3_Seg09
R_rear_hand02 Rope3_Seg09
R_rear_hand03 Rope3_Seg09
Rope4_Seg01 null_rope04_connect
Rope4_Seg02 Rope4_Seg01
Rope4_Seg03 Rope4_Seg02
Rope4_Seg04 Rope4_Seg03
Rope4_Seg05 Rope4_Seg04
Rope4_Seg06 Rope4_Seg05
Rope4_Seg07 Rope4_Seg06
Rope4_Seg08 Rope4_Seg07
Rope4_Seg09 Rope4_Seg08
L_rear_hand01 Rope4_Seg09
L_rear_hand02 Rope4_Seg09
L_rear_hand03 Rope4_Seg09
[BasePosition]
#SegmentName Tx, Ty, Tz, Rx, Ry, Rz, BoneLength
MASTER 0.000000 0.000000 0.000000 -90.000000 0.000000 0.000000 10.000000 
root 0.000000 0.000000 0.000000 0.000000 0.000000 0.000000 10.000000 
chest 0.000000 0.000000 0.000000 0.000000 0.000000 0.000000 10.000000 
L_mid_tent01 0.000000 0.000000 0.000000 0.000000 0.000000 0.000000 10.000000 
R_mid_tent01 0.000000 0.000000 0.000000 0.000000 0.000000 0.000000 10.000000 
spine01 0.000000 0.000000 0.000000 0.000000 0.000000 0.000000 10.000000 
Bip01_Neck 0.000000 0.000000 0.000000 0.000000 0.000000 0.000000 10.000000 
L_humerus 0.000000 0.000000 0.000000 0.000000 0.000000 0.000000 10.000000 
R_humerus 0.000000 0.000000 0.000000 0.000000 0.000000 0.000000 10.000000 
weapon_bone 0.000000 0.000000 0.000000 0.000000 0.000000 0.000000 10.000000 
Bip01_Head 0.000000 0.000000 0.000000 0.000000 0.000000 0.000000 10.000000 
eye_left_bone 0.000000 0.000000 0.000000 0.000000 0.000000 0.000000 10.000000 
eye_right_bone 0.000000 0.000000 0.000000 0.000000 0.000000 0.000000 10.000000 
L_forearm 0.000000 0.000000 0.000000 0.000000 0.000000 0.000000 10.000000 
L_front_hand 0.000000 0.000000 0.000000 0.000000 0.000000 0.000000 10.000000 
L_weapon_bone 0.000000 0.000000 0.000000 0.000000 0.000000 0.000000 10.000000 
L_front_hand01_01 0.000000 0.000000 0.000000 0.000000 0.000000 0.000000 10.000000 
L_front_hand02_01 0.000000 0.000000 0.000000 0.000000 0.000000 0.000000 10.000000 
L_front_hand03_01 0.000000 0.000000 0.000000 0.000000 0.000000 0.000000 10.000000 
L_front_hand01_02 0.000000 0.000000 0.000000 0.000000 0.000000 0.000000 10.000000 
L_front_hand02_02 0.000000 0.000000 0.000000 0.000000 0.000000 0.000000 10.000000 
L_front_hand03_02 0.000000 0.000000 0.000000 0.000000 0.000000 0.000000 10.000000 
R_forearm 0.000000 0.000000 0.000000 0.000000 0.000000 0.000000 10.000000 
R_front_hand 0.000000 0.000000 0.000000 0.000000 0.000000 0.000000 10.000000 
R_weapon_bone 0.000000 0.000000 0.000000 0.000000 0.000000 0.000000 10.000000 
R_front_hand01_01 0.000000 0.000000 0.000000 0.000000 0.000000 0.000000 10.000000 
R_front_hand02_01 0.000000 0.000000 0.000000 0.000000 0.000000 0.000000 10.000000 
R_front_hand03_01 0.000000 0.000000 0.000000 0.000000 0.000000 0.000000 10.000000 
R_front_hand01_02 0.000000 0.000000 0.000000 0.000000 0.000000 0.000000 10.000000 
R_front_hand02_02 0.000000 0.000000 0.000000 0.000000 0.000000 0.000000 10.000000 
R_front_hand03_02 0.000000 0.000000 0.000000 0.000000 0.000000 0.000000 10.000000 
null_rope01_connect 0.000000 0.000000 0.000000 0.000000 0.000000 0.000000 10.000000 
Rope1_Seg01 0.000000 0.000000 0.000000 0.000000 0.000000 0.000000 10.000000 
Rope1_Seg02 0.000000 0.000000 0.000000 0.000000 0.000000 0.000000 10.000000 
Rope1_Seg03 0.000000 0.000000 0.000000 0.000000 0.000000 0.000000 10.000000 
Rope1_Seg04 0.000000 0.000000 0.000000 0.000000 0.000000 0.000000 10.000000 
Rope1_Seg05 0.000000 0.000000 0.000000 0.000000 0.000000 0.000000 10.000000 
Rope1_Seg06 0.000000 0.000000 0.000000 0.000000 0.000000 0.000000 10.000000 
Rope1_Seg07 0.000000 0.000000 0.000000 0.000000 0.000000 0.000000 10.000000 
Rope1_Seg09 0.000000 0.000000 0.000000 0.000000 0.000000 0.000000 10.000000 
L_mid_hand01 0.000000 0.000000 0.000000 0.000000 0.000000 0.000000 10.000000 
L_mid_hand02 0.000000 0.000000 0.000000 0.000000 0.000000 0.000000 10.000000 
L_mid_hand03 0.000000 0.000000 0.000000 0.000000 0.000000 0.000000 10.000000 
null_rope02_connect 0.000000 0.000000 0.000000 0.000000 0.000000 0.000000 10.000000 
Rope2_Seg01 0.000000 0.000000 0.000000 0.000000 0.000000 0.000000 10.000000 
Rope2_Seg02 0.000000 0.000000 0.000000 0.000000 0.000000 0.000000 10.000000 
Rope2_Seg03 0.000000 0.000000 0.000000 0.000000 0.000000 0.000000 10.000000 
Rope2_Seg04 0.000000 0.000000 0.000000 0.000000 0.000000 0.000000 10.000000 
Rope2_Seg05 0.000000 0.000000 0.000000 0.000000 0.000000 0.000000 10.000000 
Rope2_Seg06 0.000000 0.000000 0.000000 0.000000 0.000000 0.000000 10.000000 
Rope2_Seg07 0.000000 0.000000 0.000000 0.000000 0.000000 0.000000 10.000000 
Rope2_Seg09 0.000000 0.000000 0.000000 0.000000 0.000000 0.000000 10.000000 
R_mid_hand01 0.000000 0.000000 0.000000 0.000000 0.000000 0.000000 10.000000 
R_mid_hand02 0.000000 0.000000 0.000000 0.000000 0.000000 0.000000 10.000000 
R_mid_hand03 0.000000 0.000000 0.000000 0.000000 0.000000 0.000000 10.000000 
spine02 0.000000 0.000000 0.000000 0.000000 0.000000 0.000000 10.000000 
spine03 0.000000 0.000000 0.000000 0.000000 0.000000 0.000000 10.000000 
pelvis 0.000000 0.000000 0.000000 0.000000 0.000000 0.000000 10.000000 
null_rope03_connect 0.000000 0.000000 0.000000 0.000000 0.000000 0.000000 10.000000 
null_rope04_connect 0.000000 0.000000 0.000000 0.000000 0.000000 0.000000 10.000000 
Rope3_Seg01 0.000000 0.000000 0.000000 0.000000 0.000000 0.000000 10.000000 
Rope3_Seg02 0.000000 0.000000 0.000000 0.000000 0.000000 0.000000 10.000000 
Rope3_Seg03 0.000000 0.000000 0.000000 0.000000 0.000000 0.000000 10.000000 
Rope3_Seg04 0.000000 0.000000 0.000000 0.000000 0.000000 0.000000 10.000000 
Rope3_Seg05 0.000000 0.000000 0.000000 0.000000 0.000000 0.000000 10.000000 
Rope3_Seg06 0.000000 0.000000 0.000000 0.000000 0.000000 0.000000 10.000000 
Rope3_Seg07 0.000000 0.000000 0.000000 0.000000 0.000000 0.000000 10.000000 
Rope3_Seg08 0.000000 0.000000 0.000000 0.000000 0.000000 0.000000 10.000000 
Rope3_Seg09 0.000000 0.000000 0.000000 0.000000 0.000000 0.000000 10.000000 
R_rear_hand01 0.000000 0.000000 0.000000 0.000000 0.000000 0.000000 10.000000 
R_rear_hand02 0.000000 0.000000 0.000000 0.000000 0.000000 0.000000 10.000000 
R_rear_hand03 0.000000 0.000000 0.000000 0.000000 0.000000 0.000000 10.000000 
Rope4_Seg01 0.000000 0.000000 0.000000 0.000000 0.000000 0.000000 10.000000 
Rope4_Seg02 0.000000 0.000000 0.000000 0.000000 0.000000 0.000000 10.000000 
Rope4_Seg03 0.000000 0.000000 0.000000 0.000000 0.000000 0.000000 10.000000 
Rope4_Seg04 0.000000 0.000000 0.000000 0.000000 0.000000 0.000000 10.000000 
Rope4_Seg05 0.000000 0.000000 0.000000 0.000000 0.000000 0.000000 10.000000 
Rope4_Seg06 0.000000 0.000000 0.000000 0.000000 0.000000 0.000000 10.000000 
Rope4_Seg07 0.000000 0.000000 0.000000 0.000000 0.000000 0.000000 10.000000 
Rope4_Seg08 0.000000 0.000000 0.000000 0.000000 0.000000 0.000000 10.000000 
Rope4_Seg09 0.000000 0.000000 0.000000 0.000000 0.000000 0.000000 10.000000 
L_rear_hand01 0.000000 0.000000 0.000000 0.000000 0.000000 0.000000 10.000000 
L_rear_hand02 0.000000 0.000000 0.000000 0.000000 0.000000 0.000000 10.000000 
L_rear_hand03 0.000000 0.000000 0.000000 0.000000 0.000000 0.000000 10.000000 
#Beginning of Data. Separated by tabs
#Fr	Tx	Ty	Tz	Rx	Ry	Rz	SF
[MASTER]
7 0.000000 0.000000 0.000000 0.001660 0.001660 0.001660 0.000000
8 0.000000 0.000000 0.000000 0.001660 0.001660 0.001660 0.000000
[root]
7 5.306254 -232.337280 1272.092407 -127.248901 -37.161060 -48.118546 1293.146606
8 -16.502230 -245.517944 1263.094116 -131.412277 -37.197506 -45.682594 1286.840332
[chest]
7 -84.512650 -34.090519 0.000000 -2.106487 -0.013287 167.508636 91.129311
8 -84.512650 -34.090519 0.000000 -2.101563 -0.013844 167.448929 91.129311
[L_mid_tent01]
7 27.299086 22.179234 -249.918686 -109.241905 49.539776 -20.496164 252.381683
8 27.299088 22.179230 -249.918686 -102.693512 50.041134 -14.533421 252.381683
[R_mid_tent01]
7 23.228794 24.509907 226.238495 -72.432076 -65.068703 -21.808558 228.744751
8 23.228794 24.509907 226.238495 -85.364441 -66.266434 -11.335862 228.744751
[spine01]
7 -0.361383 -0.195265 0.000000 -0.000001 -0.000007 22.052340 0.410763
8 -0.361383 -0.195265 0.000000 -0.000001 -0.000007 22.052340 0.410763
[Bip01_Neck]
7 165.484543 71.581718 0.000119 175.896118 1.177290 24.871183 180.302734
8 165.484543 71.581718 0.000119 175.896118 1.177290 24.871180 180.302734
[L_humerus]
7 -13.983130 -135.272980 -120.471481 92.985268 58.011234 -162.094421 181.680161
8 -13.983130 -135.272980 -120.471481 93.656822 34.412762 -163.458435 181.680161
[R_humerus]
7 -13.983309 -135.273102 125.287651 149.271378 -41.406471 -39.698795 184.909012
8 -13.983309 -135.273102 125.287651 176.697357 -50.067902 -75.577637 184.909012
[weapon_bone]
7 235.964890 -300.705902 0.000000 0.000000 -89.951546 -128.212341 382.234833
8 235.964890 -300.705902 0.000000 0.000000 -89.951546 -128.212341 382.234833
[Bip01_Head]
7 176.497437 63.986740 1.884956 2.086948 0.249074 -51.986172 187.747696
8 173.631302 78.611633 2.959521 1.949660 -0.089311 -48.923328 190.621017
[eye_left_bone]
7 30.852089 157.928085 -74.733887 -106.066826 -85.834816 6.572563 177.421204
8 31.347860 158.162384 -74.688049 -106.721329 -85.924408 7.230462 177.697311
[eye_right_bone]
7 40.550686 158.834793 54.012852 73.836296 -85.843201 6.670612 172.598495
8 41.022644 159.124634 54.048042 73.259727 -85.909546 7.246543 172.987564
[L_forearm]
7 322.776093 0.000000 -0.000119 0.000999 0.002124 -39.642612 322.776093
8 322.776093 0.000000 -0.000119 0.001172 0.002034 -30.096388 322.776093
[L_front_hand]
7 241.149185 -0.042021 -3.300071 -177.746078 0.252812 -87.854691 241.171753
8 241.149185 -0.042021 -3.300071 -177.782593 0.477965 -93.598793 241.171753
[L_weapon_bone]
7 156.183838 0.000000 0.000000 0.000014 0.000007 0.000001 156.183838
8 156.183838 0.000000 0.000000 0.000014 0.000007 0.000001 156.183838
[L_front_hand01_01]
7 86.095154 20.947098 -0.655860 -0.366594 -0.477154 75.385574 88.609184
8 86.095154 20.947098 -0.655860 -0.366594 -0.477154 75.385574 88.609184
[L_front_hand02_01]
7 86.935165 -11.437475 24.513514 154.399811 -59.883846 -61.369606 91.046425
8 86.935165 -11.437475 24.513514 154.399796 -59.883835 -61.369587 91.046425
[L_front_hand03_01]
7 86.637497 -14.123976 -20.424902 -153.913849 58.118122 -62.702866 90.126129
8 86.637497 -14.123976 -20.424902 -153.913849 58.118122 -62.702866 90.126129
[L_front_hand01_02]
7 71.020905 -0.000179 0.000030 0.000334 -0.002323 -106.379684 71.020905
8 71.020905 -0.000179 0.000030 0.000334 -0.002323 -106.379684 71.020905
[L_front_hand02_02]
7 71.020927 -0.000119 0.000060 0.000334 -0.002323 -106.379684 71.020927
8 71.020927 -0.000119 0.000060 0.000334 -0.002323 -106.379684 71.020927
[L_front_hand03_02]
7 71.020905 -0.000060 0.000060 0.000334 -0.002323 -106.379684 71.020905
8 71.020905 -0.000060 0.000060 0.000334 -0.002323 -106.379684 71.020905
[R_forearm]
7 322.776428 -0.000060 0.000030 0.150515 -0.149515 -45.615982 322.776428
8 322.776428 -0.000060 0.000030 0.166130 -0.131117 -52.692474 322.776428
[R_front_hand]
7 238.847015 -0.006795 2.210259 -2.635298 -10.645461 -26.312506 238.857239
8 238.847015 -0.006795 2.210259 -2.635298 -10.645461 -26.312506 238.857239
[R_weapon_bone]
7 155.664093 0.002503 -0.000030 0.003487 0.001180 -90.988930 155.664078
8 155.664093 0.002503 -0.000030 0.003487 0.001180 -90.988930 155.664078
[R_front_hand01_01]
7 87.624611 14.231146 22.918642 -154.633499 -59.950615 61.746044 91.683487
8 87.624611 14.231146 22.918642 -154.633484 -59.950619 61.746037 91.683487
[R_front_hand02_01]
7 89.356956 14.367283 -19.491137 154.602676 58.302864 63.744400 92.579636
8 89.356956 14.367283 -19.491137 154.602661 58.302849 63.744389 92.579636
[R_front_hand03_01]
7 87.286232 -22.307278 -0.143439 0.162155 -0.423168 -75.767921 90.091743
8 87.286232 -22.307278 -0.143439 0.162155 -0.423168 -75.767921 90.091743
[R_front_hand01_02]
7 71.020905 0.000060 0.000119 0.002323 -0.000334 106.381714 71.020905
8 71.020905 0.000060 0.000119 0.002323 -0.000334 106.381714 71.020905
[R_front_hand02_02]
7 71.020844 -0.000030 -0.000119 0.002323 -0.000334 106.381714 71.020836
8 71.020844 -0.000030 -0.000119 0.002323 -0.000334 106.381714 71.020836
[R_front_hand03_02]
7 71.020905 0.000000 0.000030 0.002323 -0.000334 106.381714 71.020905
8 71.020905 0.000000 0.000030 0.002323 -0.000334 106.381714 71.020905
[null_rope01_connect]
7 328.732483 0.000000 -0.000238 -118.117348 14.716475 -107.063553 328.732483
8 328.732483 0.000000 -0.000238 -118.536934 12.943000 -105.122200 328.732483
[Rope1_Seg01]
7 0.000000 0.000000 0.000000 -11.664961 -24.677185 -48.903481 0.000000
8 0.000000 0.000000 0.000000 -11.974912 -33.111462 -47.582386 0.000000
[Rope1_Seg02]
7 139.999863 -0.000179 0.000000 2.691294 -7.892360 -12.480631 139.999863
8 139.999863 -0.000179 0.000000 1.718631 -7.320193 -14.349843 139.999863
[Rope1_Seg03]
7 139.999924 0.000060 -0.000060 5.766625 -9.474554 -18.050791 139.999924
8 139.999924 0.000060 -0.000060 5.248612 -6.769503 -21.441944 139.999924
[Rope1_Seg04]
7 139.999924 -0.000060 -0.000119 6.171494 -6.261331 -15.684411 139.999924
8 139.999924 -0.000060 -0.000119 5.600162 -5.535673 -13.964341 139.999924
[Rope1_Seg05]
7 139.999832 0.000119 -0.000060 5.608369 -23.762241 -2.732530 139.999832
8 139.999832 0.000119 -0.000060 52.342236 -70.640930 -65.637794 139.999832
[Rope1_Seg06]
7 139.999954 0.000119 -0.000060 -67.752007 -77.655441 46.205959 139.999954
8 139.999954 0.000119 -0.000060 -16.858330 -43.942482 -13.469707 139.999954
[Rope1_Seg07]
7 139.999985 0.000060 0.000000 -20.500633 -17.020483 -8.393282 139.999985
8 139.999985 0.000060 0.000000 -3.119454 -3.856965 -3.175782 139.999985
[Rope1_Seg09]
7 121.602913 0.000119 -0.000089 -89.790619 -1.359656 0.847385 121.602913
8 121.602913 0.000119 -0.000089 -89.790619 -1.359656 0.847385 121.602913
[L_mid_hand01]
7 103.859421 1.038730 8.195221 104.404274 -4.587238 -1.706505 104.187431
8 103.859421 1.038730 8.195221 104.355827 -1.017642 -0.792002 104.187431
[L_mid_hand02]
7 105.572853 -4.139662 -10.864139 -135.973434 7.451863 -7.046960 106.211075
8 105.572853 -4.139662 -10.864139 -135.688309 4.878249 -4.384167 106.211075
[L_mid_hand03]
7 104.641464 17.579376 -3.913581 -18.722965 1.307644 7.757803 106.179977
8 104.641464 17.579376 -3.913581 -18.765369 0.125341 4.267874 106.179977
[null_rope02_connect]
7 328.732849 0.000179 -0.000119 -128.848541 -1.819814 8.963770 328.732849
8 328.732849 0.000179 -0.000119 -122.416595 3.435804 11.266129 328.732849
[Rope2_Seg01]
7 0.000095 0.000153 0.000013 -41.484119 55.693573 64.290291 0.000180
8 0.000095 0.000153 0.000015 -53.345535 47.736301 46.722919 0.000181
[Rope2_Seg02]
7 139.999741 -0.000060 -0.000119 -1.589437 -19.300873 9.513542 139.999756
8 139.999741 -0.000060 -0.000119 -3.778492 -17.472242 21.978853 139.999756
[Rope2_Seg03]
7 140.000107 0.000030 0.000000 -2.219942 -15.870694 2.678679 140.000107
8 140.000107 0.000030 0.000000 0.417053 -13.208621 11.283596 140.000107
[Rope2_Seg04]
7 139.999802 0.000000 -0.000060 6.478729 3.776772 9.712696 139.999802
8 139.999802 0.000000 -0.000060 5.907381 2.086099 10.465443 139.999802
[Rope2_Seg05]
7 139.999985 -0.000060 0.000119 7.384468 10.513683 9.599538 139.999985
8 139.999985 -0.000060 0.000119 4.866356 5.669973 6.942439 139.999985
[Rope2_Seg06]
7 139.999893 -0.000030 -0.000119 2.421240 4.295528 4.162455 139.999893
8 139.999893 -0.000030 -0.000119 2.071633 2.084472 3.601987 139.999893
[Rope2_Seg07]
7 139.999893 0.000060 -0.000060 1.358375 2.865275 2.603644 139.999893
8 139.999893 0.000060 -0.000060 1.297438 1.444649 2.323193 139.999893
[Rope2_Seg09]
7 121.338966 0.000089 -0.000060 33.793236 -1.359788 -0.847141 121.338966
8 121.338966 0.000089 -0.000060 33.793236 -1.359788 -0.847141 121.338966
[R_mid_hand01]
7 104.680779 11.144459 -10.335981 -47.306622 4.274038 6.661832 105.778534
8 104.680779 11.144459 -10.335981 -47.384247 2.963531 5.452612 105.778534
[R_mid_hand02]
7 104.070427 2.443552 8.231699 75.603210 -3.978249 1.556081 104.424065
8 104.070427 2.443552 8.231699 75.626297 -2.250015 1.111096 104.424065
[R_mid_hand03]
7 106.028137 -11.221827 -5.996406 -164.461227 2.973406 -7.858387 106.788818
8 106.028137 -11.221827 -5.996406 -164.381927 2.495988 -6.140535 106.788818
[spine02]
7 129.756927 0.001550 0.000119 1.074185 -3.913771 -23.229681 129.756927
8 129.756927 0.001550 0.000119 1.070902 -3.914669 -23.133593 129.756927
[spine03]
7 78.614067 0.081635 -4.899007 -2.476674 3.488202 -45.263325 78.766602
8 78.614067 0.081635 -4.899008 -2.438348 3.514405 -44.695068 78.766602
[pelvis]
7 169.435242 0.051022 0.000000 -0.061773 -0.179781 14.920521 169.435257
8 169.435242 0.051022 0.000000 -0.061879 -0.179745 14.987868 169.435257
[null_rope03_connect]
7 -1.257226 -2.466202 137.391083 148.813477 -57.287304 20.448301 137.418976
8 -1.257226 -2.466202 137.391083 152.965469 -55.230831 17.510448 137.418976
[null_rope04_connect]
7 -1.259640 -2.480268 -137.844437 148.813477 -57.287304 20.448301 137.872513
8 -1.259640 -2.480268 -137.844437 152.965469 -55.230831 17.510448 137.872513
[Rope3_Seg01]
7 0.000010 0.000032 -0.000127 -130.922302 6.681811 -79.556374 0.000131
8 0.000010 0.000031 -0.000123 -130.644348 3.859294 -77.422134 0.000127
[Rope3_Seg02]
7 139.999924 -0.000119 0.000060 -0.016370 -3.525339 -0.700459 139.999924
8 139.999924 -0.000119 0.000060 0.067894 -3.782633 0.241892 139.999924
[Rope3_Seg03]
7 139.999924 -0.000119 0.000119 0.134199 -4.692166 -0.939364 139.999924
8 139.999924 -0.000119 0.000119 0.220323 -4.951161 0.323805 139.999924
[Rope3_Seg04]
7 139.999924 0.000119 0.000000 0.441672 -6.505847 -1.291617 139.999924
8 139.999924 0.000119 0.000000 0.490182 -6.666010 0.458617 139.999924
[Rope3_Seg05]
7 139.999924 -0.000238 0.000060 2.882485 -14.904144 -2.645747 139.999924
8 139.999924 -0.000238 0.000060 2.368005 -14.822270 1.250036 139.999924
[Rope3_Seg06]
7 139.999893 -0.000119 -0.000060 6.387787 -17.054289 -2.439622 139.999893
8 139.999893 -0.000119 -0.000060 4.028226 -13.957215 1.757057 139.999893
[Rope3_Seg07]
7 139.999771 0.000060 -0.000119 -2.968291 8.147226 -0.760324 139.999771
8 139.999771 0.000060 -0.000119 -1.739932 6.842400 -1.613701 139.999771
[Rope3_Seg08]
7 139.999985 -0.000060 0.000000 -3.019385 12.062942 0.075587 139.999985
8 139.999985 -0.000060 0.000000 -2.085864 10.016973 -1.948923 139.999985
[Rope3_Seg09]
7 90.185997 -0.000179 -0.000060 19.951286 -1.361204 -0.845404 90.185997
8 90.185997 -0.000179 -0.000060 5.459448 -1.359315 -0.845522 90.185997
[R_rear_hand01]
7 103.366196 -6.073594 -10.757982 -156.209549 6.713652 -4.254883 104.101845
8 103.366196 -6.073594 -10.757982 -156.049316 6.070421 -2.795873 104.101845
[R_rear_hand02]
7 100.509819 12.039542 -7.992327 -38.654713 2.945911 6.696512 101.543350
8 100.509819 12.039542 -7.992327 -38.708435 1.958054 5.461190 101.543350
[R_rear_hand03]
7 101.539970 5.215704 5.435467 84.296906 -3.937381 4.256485 101.819031
8 101.539970 5.215704 5.435467 84.307625 -2.361037 4.099038 101.819031
[Rope4_Seg01]
7 0.000010 0.000038 -0.000114 28.454723 -24.976681 -63.090500 0.000121
8 0.000010 0.000038 -0.000114 12.661498 -51.828091 -52.733601 0.000121
[Rope4_Seg02]
7 139.999985 0.000060 0.000119 8.147551 -17.609661 -30.813015 139.999985
8 139.999985 0.000060 0.000119 3.519210 -16.737919 -52.470039 139.999985
[Rope4_Seg03]
7 139.999924 0.000000 -0.000238 0.033760 -20.050306 -23.728273 139.999924
8 139.999924 0.000000 -0.000238 -11.497814 -8.793106 -23.426775 139.999924
[Rope4_Seg04]
7 139.999985 0.000000 0.000119 -4.529661 -2.575369 -8.300550 139.999985
8 139.999985 0.000000 0.000119 -7.216336 2.383849 -7.017645 139.999985
[Rope4_Seg05]
7 139.999802 -0.000060 -0.000119 -6.257627 12.234702 -3.952811 139.999802
8 139.999802 -0.000060 -0.000119 -9.480321 11.022874 -6.765743 139.999802
[Rope4_Seg06]
7 139.999924 0.000000 0.000060 -5.596934 18.316097 -4.859230 139.999924
8 139.999924 0.000000 0.000060 -10.037120 17.007994 -9.223618 139.999924
[Rope4_Seg07]
7 139.999802 0.000000 0.000000 -2.345487 16.880545 -4.988475 139.999802
8 139.999802 0.000000 0.000000 -5.276506 17.156601 -7.136690 139.999802
[Rope4_Seg08]
7 139.999924 0.000000 0.000119 -1.483028 7.199723 -1.856006 139.999924
8 139.999924 0.000000 0.000119 -2.350079 6.842835 -2.200474 139.999924
[Rope4_Seg09]
7 90.185791 0.000060 0.000060 169.125565 2.230842 0.852680 90.185791
8 90.185791 0.000060 0.000060 163.669830 2.229083 0.851190 90.185791
[L_rear_hand01]
7 101.696655 -8.392275 -7.654577 -38.741360 -0.846534 175.927750 102.329041
8 101.696655 -8.392275 -7.654577 -38.746338 0.246087 177.290192 102.329041
[L_rear_hand02]
7 102.726799 -1.568258 5.773216 84.312180 0.593349 176.077271 102.900848
8 102.726799 -1.568258 5.773216 84.315163 -1.142782 176.247437 102.900848
[L_rear_hand03]
7 104.552910 9.721220 -10.420293 -155.883026 -5.346638 -178.835999 105.519653
8 104.552910 9.721220 -10.420293 -155.747955 -4.630851 179.564774 105.519653
